<?xml version="1.0" encoding="UTF-8" standalone="no"?>
<!-- Created with Inkscape (http://www.inkscape.org/) -->

<svg
   xmlns:dc="http://purl.org/dc/elements/1.1/"
   xmlns:cc="http://creativecommons.org/ns#"
   xmlns:rdf="http://www.w3.org/1999/02/22-rdf-syntax-ns#"
   xmlns:svg="http://www.w3.org/2000/svg"
   xmlns="http://www.w3.org/2000/svg"
   xmlns:xlink="http://www.w3.org/1999/xlink"
   xmlns:sodipodi="http://sodipodi.sourceforge.net/DTD/sodipodi-0.dtd"
   xmlns:inkscape="http://www.inkscape.org/namespaces/inkscape"
   id="svg2"
   version="1.1"
   inkscape:version="0.91 r13725"
   width="384"
   height="258.60001"
   viewBox="0 0 384 258.60001"
   sodipodi:docname="ld-2017-logo-banner.svg">
  <metadata
     id="metadata8">
    <rdf:RDF>
      <cc:Work
         rdf:about="">
        <dc:format>image/svg+xml</dc:format>
        <dc:type
           rdf:resource="http://purl.org/dc/dcmitype/StillImage" />
        <dc:title></dc:title>
      </cc:Work>
    </rdf:RDF>
  </metadata>
  <defs
     id="defs6" />
  <sodipodi:namedview
     pagecolor="#ffffff"
     bordercolor="#666666"
     borderopacity="1"
     objecttolerance="10"
     gridtolerance="10"
     guidetolerance="10"
     inkscape:pageopacity="0"
     inkscape:pageshadow="2"
     inkscape:window-width="1366"
     inkscape:window-height="715"
     id="namedview4"
     showgrid="false"
     showguides="true"
     inkscape:guide-bbox="true"
     inkscape:zoom="0.64531012"
     inkscape:cx="-134.81982"
     inkscape:cy="52.011749"
     inkscape:window-x="1358"
     inkscape:window-y="-8"
     inkscape:window-maximized="1"
     inkscape:current-layer="svg2" />
  <rect
     style="opacity:1;fill:#3ab54a;fill-opacity:1;fill-rule:nonzero;stroke:none;stroke-width:0.1;stroke-linecap:round;stroke-linejoin:round;stroke-miterlimit:4;stroke-dasharray:none;stroke-opacity:1"
     id="rect4312"
     width="384.31134"
     height="258.01547"
     x="0"
     y="0.58452564" />
  <path
     style="fill:#000000;fill-rule:evenodd;stroke:none;stroke-width:0.1;stroke-linecap:butt;stroke-linejoin:miter;stroke-miterlimit:4;stroke-dasharray:none;stroke-opacity:1"
     d="m 198.53851,95.673784 c 3.22689,-8.461208 9.34548,-19.171751 12.49855,-20.545552 3.47345,-0.838876 6.47831,-0.873311 9.75913,-0.753337 1.87477,0.437834 4.06653,1.404367 5.14728,3.614947 5.0485,10.326211 11.22275,27.583028 15.21511,41.289838 0.47855,1.64301 0.4046,2.9249 0.22122,4.41846 -0.24412,1.98837 -0.55814,2.8412 -2.8317,2.02002 0.12243,9.04199 -4.74155,17.19648 -9.78212,18.402 -0.0244,0.38108 0.037,0.69546 0.26704,0.96543 2.44523,0.86743 4.78448,1.91151 7.09376,3.00553 -1.7453,-0.0646 -3.51834,-0.12913 -5.13319,-0.1937 -0.65336,0.54006 -0.90453,1.53977 -1.25909,2.42131 -1.61451,-0.47774 -3.10149,-0.981 -4.26151,-1.54964 -1.38907,0.38656 -2.45754,1.09372 -3.4867,1.8402 0.21544,-1.36121 0.57602,-2.64985 1.06538,-3.8741 -0.5313,-0.6866 -1.1061,-2.21601 -1.50122,-3.22036 -4.77011,0.0616 -9.90968,0.0569 -14.3584,-0.46005 -0.25403,1.02311 -0.64269,1.97891 -1.2833,2.80873 0.80809,1.36895 0.87253,2.66353 1.06538,3.97096 -1.25553,-0.98779 -2.42482,-1.65932 -3.4867,-1.93705 -1.34771,0.75487 -2.84946,1.27869 -4.45522,1.64649 0.0499,-0.92393 -0.37634,-1.65738 -0.96852,-2.32446 -1.6465,-0.24033 -3.58355,-0.0512 -5.23005,0.0243 2.26638,-1.23475 4.57816,-2.24248 6.97339,-2.83295 0.24405,-0.3708 0.60007,-1.00174 0.66587,-1.88862 -0.68362,-0.10473 -1.34574,-0.47252 -1.62974,-0.9192 -0.3821,-0.60095 -0.77852,-1.41172 -1.08976,-2.10535 -3.96295,-8.83175 -5.70522,-14.94034 -2.11103,-33.63419 -11.03466,2.03481 -16.20779,3.389 -20.38844,3.08157 -4.21253,-0.30978 -4.92747,-1.59141 -2.82589,-3.46131 3.60603,-3.20849 15.34051,-8.096063 22.60413,-9.536084 1.21558,-0.24099 2.5856,-0.201382 3.50634,-0.273832 z"
     id="path4138"
     inkscape:connector-curvature="0"
     sodipodi:nodetypes="cccssscccccccccccccccccccsscsssc" />
  <ellipse
     style="opacity:1;fill:#ffffff;fill-opacity:1;fill-rule:nonzero;stroke:none;stroke-width:0.11564288;stroke-linecap:round;stroke-linejoin:round;stroke-miterlimit:4;stroke-dasharray:none;stroke-opacity:1"
     id="path4140"
     cx="200.23233"
     cy="119.88271"
     rx="14.154035"
     ry="15.662683"
     transform="matrix(1,0,0.12670036,0.99194104,0,0)" />
  <path
     style="fill:#ffffff;fill-rule:evenodd;stroke:none;stroke-width:0.1;stroke-linecap:butt;stroke-linejoin:miter;stroke-opacity:1;stroke-miterlimit:4;stroke-dasharray:none"
     d="m 215.35162,86.667984 -3.04759,2.602436 5.17063,3.526986 z"
     id="path4142"
     inkscape:connector-curvature="0" />
  <path
     style="fill:#ffffff;fill-rule:evenodd;stroke:none;stroke-width:0.1;stroke-linecap:butt;stroke-linejoin:miter;stroke-miterlimit:4;stroke-dasharray:none;stroke-opacity:1"
     d="m 212.06433,85.29828 c 0.45648,0.838378 1.71994,1.822175 3.62972,1.095763 3.44097,5.164703 10.26234,2.086544 7.43064,-2.362739 -1.55233,-0.126924 -3.32258,0.05156 -4.87491,0.374948 0.92404,1.806924 -1.23829,2.135878 -1.76988,1.117543 -0.78585,0.870248 -2.31531,0.420749 -2.4295,-0.704911 -0.53081,-0.02456 -1.66803,0.176023 -1.98607,0.479396 z"
     id="path4144"
     inkscape:connector-curvature="0"
     sodipodi:nodetypes="ccccccc" />
  <path
     style="fill:#000000;fill-rule:evenodd;stroke:none;stroke-width:0.1;stroke-linecap:butt;stroke-linejoin:miter;stroke-miterlimit:4;stroke-dasharray:none;stroke-opacity:1"
     d="m 146.96918,69.737319 -0.20546,1.69493 22.24417,0 0,6.73126 c 0,1.261241 1.64649,1.247038 1.64649,0 l 0,-16.595341 -1.64649,0.479397 0,7.689754 z"
     id="path4207"
     inkscape:connector-curvature="0"
     sodipodi:nodetypes="ccccccccc" />
  <path
     style="fill:#ffffff;fill-rule:evenodd;stroke:none;stroke-width:0.1;stroke-linecap:butt;stroke-linejoin:miter;stroke-opacity:1;stroke-miterlimit:4;stroke-dasharray:none"
     d="m 149.6401,62.886508 -5.82124,-1.729251 0,18.901908 5.82124,-1.575159 z"
     id="path4195"
     inkscape:connector-curvature="0" />
  <path
     style="fill:#000000;fill-rule:evenodd;stroke:none;stroke-width:0.1;stroke-linecap:round;stroke-linejoin:round;stroke-opacity:1;stroke-miterlimit:4;stroke-dasharray:none"
     d="m 194.44779,57.354032 5.40345,2.512717 2.06509,-4.521846 -5.35386,-2.36309 z"
     id="path4256"
     inkscape:connector-curvature="0" />
  <path
     style="fill:#ffffff;fill-rule:evenodd;stroke:none;stroke-width:0.1;stroke-linecap:butt;stroke-linejoin:miter;stroke-miterlimit:4;stroke-dasharray:none;stroke-opacity:1"
     d="m 175.6856,54.849859 13.46764,-12.23128 12.59201,5.760253 -5.56419,11.870266 c -1.33741,2.853138 -2.62104,3.12546 -5.59276,1.708182 z"
     id="path4254"
     inkscape:connector-curvature="0"
     sodipodi:nodetypes="cccccc" />
  <path
     style="fill:#000000;fill-rule:evenodd;stroke:none;stroke-width:0.1;stroke-linecap:round;stroke-linejoin:round;stroke-opacity:1;stroke-miterlimit:4;stroke-dasharray:none"
     d="M 167.97656 30.417969 L 160.03516 47.386719 L 172.08789 53.134766 L 171.19922 54.871094 L 168.63281 53.683594 C 167.42428 53.124031 166.80654 54.42252 167.97852 54.962891 L 176.06836 58.693359 C 177.34526 59.282104 178.01256 58.026687 176.58398 57.365234 L 172.71289 55.572266 L 173.49805 53.806641 L 176.9707 55.462891 L 189.53711 44.775391 L 204.25391 51.773438 L 205.94336 48.091797 L 167.97656 30.417969 z "
     id="path4252" />
  <circle
     style="opacity:1;fill:#ffffff;fill-opacity:1;fill-rule:nonzero;stroke:none;stroke-width:0.1;stroke-linecap:round;stroke-linejoin:round;stroke-miterlimit:4;stroke-dasharray:none;stroke-opacity:1"
     id="path4209"
     cx="169.73428"
     cy="59.809925"
     r="4.261517" />
  <circle
     r="1.1981739"
     cy="59.809925"
     cx="169.73428"
     id="circle4211"
     style="opacity:1;fill:#000000;fill-opacity:1;fill-rule:nonzero;stroke:none;stroke-width:0.1;stroke-linecap:round;stroke-linejoin:round;stroke-miterlimit:4;stroke-dasharray:none;stroke-opacity:1" />
  <path
     style="fill:#ffffff;fill-rule:evenodd;stroke:none;stroke-width:0.1;stroke-linecap:butt;stroke-linejoin:miter;stroke-miterlimit:4;stroke-dasharray:none;stroke-opacity:1"
     d="m 167.07898,44.626968 6.67235,3.102781 c 1.43553,0.66755 2.15083,-0.744517 0.6794,-1.432983 l -6.68574,-3.12819 c -1.29013,-0.603637 -1.95263,0.860086 -0.66601,1.458392 z"
     id="path4262"
     inkscape:connector-curvature="0"
     sodipodi:nodetypes="ccccc" />
  <path
     style="fill:#ffffff;fill-rule:evenodd;stroke:none;stroke-width:0.13118492;stroke-linecap:butt;stroke-linejoin:miter;stroke-miterlimit:4;stroke-dasharray:none;stroke-opacity:1"
     d="m 168.34761,40.835792 9.46434,4.266957 c 2.03623,0.918017 2.68481,-0.906354 0.59678,-1.852851 l -9.48737,-4.300608 c -1.83074,-0.829873 -2.39875,1.06371 -0.57375,1.886502 z"
     id="path4262-2"
     inkscape:connector-curvature="0"
     sodipodi:nodetypes="ccccc" />
  <path
     style="fill:#000000;fill-rule:evenodd;stroke:none;stroke-width:0.1;stroke-linecap:butt;stroke-linejoin:miter;stroke-miterlimit:4;stroke-dasharray:none;stroke-opacity:1"
     d="M 165.80273 87.867188 L 170.45898 101.2207 C 171.25142 103.43216 171.98837 105.65504 173.09961 107.80273 A 3.2188032 3.2188032 0 0 0 170.08203 111.01367 A 3.2188032 3.2188032 0 0 0 173.30078 114.23242 A 3.2188032 3.2188032 0 0 0 176.52148 111.01367 A 3.2188032 3.2188032 0 0 0 174.88477 108.21289 C 173.85612 106.27683 173.37037 103.74453 173.0625 101.01562 C 171.84601 96.907119 170.81348 93.344886 169.21289 90.318359 C 168.53896 89.044044 167.34245 88.227224 165.80273 87.867188 z M 173.50781 108.89062 A 1.9175848 1.9175848 0 0 1 175.42383 110.80859 A 1.9175848 1.9175848 0 0 1 173.50781 112.72656 A 1.9175848 1.9175848 0 0 1 171.58984 110.80859 A 1.9175848 1.9175848 0 0 1 173.50781 108.89062 z "
     id="path4290" />
  <path
     style="fill:none;fill-rule:evenodd;stroke:#ffffff;stroke-width:1px;stroke-linecap:round;stroke-linejoin:round;stroke-opacity:1"
     d="m 143.24508,98.40571 c 8.61761,10.45626 20.07856,4.62794 23.46057,-0.719491 5.77367,-9.128988 8.71761,-12.219896 10.51004,-23.990468 0.80437,-5.282127 0.87795,-12.403635 -3.36517,-18.195769"
     id="path4286"
     inkscape:connector-curvature="0"
     sodipodi:nodetypes="cssc" />
  <path
     style="fill:#000000;fill-rule:evenodd;stroke:none;stroke-width:0.1;stroke-linecap:butt;stroke-linejoin:miter;stroke-miterlimit:4;stroke-dasharray:none;stroke-opacity:1"
     d="M 181.21094 96.152344 A 3.0133476 3.0133476 0 0 0 178.19922 99.166016 A 3.0133476 3.0133476 0 0 0 178.35938 100.125 C 175.94034 99.761483 173.83437 99.869327 171.69141 99.919922 L 157.17383 100.125 C 157.62562 101.47966 159.08009 102.41859 160.58789 102.56055 C 163.87434 102.86996 168.92166 102.6078 172.82227 102.41992 C 174.69018 101.11307 177.89949 102.03144 180.97266 102.89844 L 180.30664 102.03711 A 3.0133476 3.0133476 0 0 0 181.21094 102.17969 A 3.0133476 3.0133476 0 0 0 184.22461 99.166016 A 3.0133476 3.0133476 0 0 0 181.21094 96.152344 z M 181.45117 97.248047 A 1.8833423 1.8833423 0 0 1 183.33398 99.132812 A 1.8833423 1.8833423 0 0 1 181.45117 101.01562 A 1.8833423 1.8833423 0 0 1 179.56836 99.132812 A 1.8833423 1.8833423 0 0 1 181.45117 97.248047 z "
     id="path4288" />
  <circle
     style="opacity:1;fill:#ffffff;fill-opacity:1;fill-rule:nonzero;stroke:none;stroke-width:0.1;stroke-linecap:round;stroke-linejoin:round;stroke-miterlimit:4;stroke-dasharray:none;stroke-opacity:1"
     id="path4310"
     cx="171.55536"
     cy="101.11835"
     r="0.44515362" />
</svg>
